<?xml version="1.0" encoding="iso-8859-1"?>
<!-- Uploaded to: SVG Repo, www.svgrepo.com, Generator: SVG Repo Mixer Tools -->
<svg height="800px" width="800px" version="1.1" id="Layer_1" xmlns="http://www.w3.org/2000/svg" xmlns:xlink="http://www.w3.org/1999/xlink" 
	 viewBox="0 0 492.087 492.087" xml:space="preserve">
<g>
	<path style="fill:#005ECE;" d="M420.022,75.299C373.551,28.827,311.764,3.234,246.043,3.234v40
		c113.613,0,206.043,92.431,206.043,206.044v12.819c24.658,24.019,40,57.557,40,94.617V249.278
		C492.087,183.557,466.494,121.77,420.022,75.299z"/>
	<path style="fill:#2488FF;" d="M72.064,75.299C25.593,121.77,0,183.557,0,249.278v107.436h172.139V224.574h-40
		c-35.802,0-68.318,14.319-92.139,37.522v-12.819c0-113.613,92.431-206.044,206.043-206.044v-40
		C180.323,3.234,118.536,28.827,72.064,75.299z"/>
	<path style="fill:#005ECE;" d="M0,356.714c0,72.862,59.277,132.139,132.139,132.139h40V356.714H0z"/>
	<path style="fill:#00479B;" d="M452.087,262.097c-23.821-23.203-56.337-37.522-92.139-37.522h-40v132.139h172.139
		C492.087,319.654,476.745,286.115,452.087,262.097z"/>
	<path style="fill:#003068;" d="M319.948,356.714v132.139h40c72.862,0,132.139-59.277,132.139-132.139H319.948z"/>
</g>
</svg>